<?xml version="1.0" standalone="no"?><!DOCTYPE svg PUBLIC "-//W3C//DTD SVG 1.1//EN" "http://www.w3.org/Graphics/SVG/1.1/DTD/svg11.dtd"><svg t="1654173839929" class="icon" viewBox="0 0 1024 1024" version="1.1" xmlns="http://www.w3.org/2000/svg" p-id="5446" xmlns:xlink="http://www.w3.org/1999/xlink" width="200" height="200"><defs><style type="text/css">@font-face { font-family: feedback-iconfont; src: url("//at.alicdn.com/t/font_1031158_u69w8yhxdu.woff2?t=1630033759944") format("woff2"), url("//at.alicdn.com/t/font_1031158_u69w8yhxdu.woff?t=1630033759944") format("woff"), url("//at.alicdn.com/t/font_1031158_u69w8yhxdu.ttf?t=1630033759944") format("truetype"); }
</style></defs><path d="M288.256 216.064a51.2 51.2 0 0 0-72.192 8.192l-204.8 256a51.2 51.2 0 0 0 0 64l204.8 256a51.2 51.2 0 0 0 79.872-64L116.736 512l179.2-224.256a51.2 51.2 0 0 0-7.68-71.68zM1012.736 480.256l-204.8-256a51.2 51.2 0 0 0-79.872 64l179.2 223.744-179.2 224.256a51.2 51.2 0 0 0 79.872 64l204.8-256a51.2 51.2 0 0 0 0-64zM599.552 102.4a51.2 51.2 0 0 0-60.928 39.424l-153.6 716.8A51.2 51.2 0 0 0 424.448 921.6h10.752a51.2 51.2 0 0 0 51.2-40.448l153.6-716.8A51.2 51.2 0 0 0 599.552 102.4z" fill="#3E4055" p-id="5447"></path></svg>