<?xml version="1.0" standalone="no"?><!DOCTYPE svg PUBLIC "-//W3C//DTD SVG 1.1//EN" "http://www.w3.org/Graphics/SVG/1.1/DTD/svg11.dtd"><svg t="1654580502677" class="icon" viewBox="0 0 1024 1024" version="1.1" xmlns="http://www.w3.org/2000/svg" p-id="7694" xmlns:xlink="http://www.w3.org/1999/xlink" width="200" height="200"><defs><style type="text/css">@font-face { font-family: feedback-iconfont; src: url("//at.alicdn.com/t/font_1031158_u69w8yhxdu.woff2?t=1630033759944") format("woff2"), url("//at.alicdn.com/t/font_1031158_u69w8yhxdu.woff?t=1630033759944") format("woff"), url("//at.alicdn.com/t/font_1031158_u69w8yhxdu.ttf?t=1630033759944") format("truetype"); }
</style></defs><path d="M170.666667 128v768a42.666667 42.666667 0 0 0 42.666666 42.666667h597.333334a42.666667 42.666667 0 0 0 42.666666-42.666667V384c0-0.896-0.469333-1.749333-0.554666-2.645333a40.618667 40.618667 0 0 0-2.176-11.050667c-0.469333-1.365333-0.853333-2.688-1.408-3.968a41.984 41.984 0 0 0-8.362667-12.501333l-256-256a42.752 42.752 0 0 0-12.458667-8.32c-1.322667-0.64-2.688-0.981333-4.138666-1.450667a40.362667 40.362667 0 0 0-10.794667-2.133333C556.501333 85.845333 555.605333 85.333333 554.666667 85.333333H213.333333a42.666667 42.666667 0 0 0-42.666666 42.666667z m537.002666 213.333333H597.333333V230.997333L707.669333 341.333333zM256 170.666667h256v213.333333a42.666667 42.666667 0 0 0 42.666667 42.666667h213.333333v426.666666H256V170.666667z" fill="" p-id="7695"></path><path d="M341.333333 512h341.333334v85.333333H341.333333z m0-170.666667h85.333334v85.333334H341.333333z m0 341.333334h341.333334v85.333333H341.333333z" fill="" p-id="7696"></path></svg>