<?xml version="1.0" standalone="no"?><!DOCTYPE svg PUBLIC "-//W3C//DTD SVG 1.1//EN" "http://www.w3.org/Graphics/SVG/1.1/DTD/svg11.dtd"><svg t="1654580122120" class="icon" viewBox="0 0 1024 1024" version="1.1" xmlns="http://www.w3.org/2000/svg" p-id="6202" xmlns:xlink="http://www.w3.org/1999/xlink" width="200" height="200"><defs><style type="text/css">@font-face { font-family: feedback-iconfont; src: url("//at.alicdn.com/t/font_1031158_u69w8yhxdu.woff2?t=1630033759944") format("woff2"), url("//at.alicdn.com/t/font_1031158_u69w8yhxdu.woff?t=1630033759944") format("woff"), url("//at.alicdn.com/t/font_1031158_u69w8yhxdu.ttf?t=1630033759944") format("truetype"); }
</style></defs><path d="M509.8 956.3c-60.1 0-118.4-11.8-173.3-35-53-22.4-100.6-54.5-141.5-95.4s-73-88.5-95.4-141.5c-23.2-54.9-35-113.2-35-173.3 0-60.1 11.8-118.4 35-173.3 22.4-53 54.5-100.6 95.4-141.5s88.5-73 141.5-95.4c54.9-23.2 113.2-35 173.3-35s118.4 11.8 173.3 35c53 22.4 100.6 54.5 141.5 95.4s73 88.5 95.4 141.5c23.2 54.9 35 113.2 35 173.3 0 60.1-11.8 118.4-35 173.3-22.4 53-54.5 100.6-95.4 141.5s-88.5 73-141.5 95.4c-54.9 23.3-113.3 35-173.3 35z m0-808.5c-200.3 0-363.3 163-363.3 363.3s163 363.3 363.3 363.3S873 711.4 873 511.1 710.1 147.8 509.8 147.8z" p-id="6203"></path><path d="M509.8 598c-67.4 0-128.4 42.6-151.9 105.9-7.9 21.2 2.9 44.8 24.2 52.7 21.2 7.9 44.8-2.9 52.7-24.2 11.6-31.4 41.8-52.5 75.1-52.5 33.6 0 63.8 21.3 75.3 53.1 7.7 21.3 31.2 32.3 52.5 24.6 21.3-7.7 32.3-31.2 24.6-52.5C639 641.1 577.7 598 509.8 598zM384.1 477.3c-22.6 0-41-18.4-41-41v-41.7c0-22.6 18.4-41 41-41s41 18.4 41 41v41.7c0 22.7-18.4 41-41 41zM623.6 477.3c-22.6 0-41-18.4-41-41v-41.7c0-22.6 18.4-41 41-41s41 18.4 41 41v41.7c0 22.7-18.3 41-41 41z" p-id="6204"></path></svg>